Coordinates
version=1
nRows=17
nColumns=40
inDegrees=yes

Units are S.I. units (second, meters, Newtons, ...)
If the header above contains a line with 'inDegrees', this indicates whether rotational values are in degrees (yes) or radians (no).

endheader
time	pelvis_tilt	pelvis_list	pelvis_rotation	pelvis_tx	pelvis_ty	pelvis_tz	hip_flexion_r	hip_adduction_r	hip_rotation_r	knee_angle_r	knee_angle_r_beta	ankle_angle_r	subtalar_angle_r	mtp_angle_r	hip_flexion_l	hip_adduction_l	hip_rotation_l	knee_angle_l	knee_angle_l_beta	ankle_angle_l	subtalar_angle_l	mtp_angle_l	lumbar_extension	lumbar_bending	lumbar_rotation	arm_flex_r	arm_add_r	arm_rot_r	elbow_flex_r	pro_sup_r	wrist_flex_r	wrist_dev_r	arm_flex_l	arm_add_l	arm_rot_l	elbow_flex_l	pro_sup_l	wrist_flex_l	wrist_dev_l
      0.71500000	     -7.25728891	     -8.30906754	     -5.04818614	      0.24047933	      0.89112301	      0.26526620	    -12.02661223	      9.54484599	     -1.29729671	     14.29915068	      0.24956726	      5.82180362	    -10.54286356	      0.00000000	     34.95882698	    -12.85909693	    -17.81934250	      8.57338174	      0.14963374	      3.71768460	     11.20043690	      0.00000000	     -0.84132994	      5.91708585	     -1.47695557	     44.26963316	    -15.97300823	     44.26963316	     75.21011104	     44.96968016	      0.00000000	      0.00000000	     44.26963316	    -15.97300823	     44.26963316	     75.21011104	     44.96968016	      0.00000000	      0.00000000
      0.72000000	     -7.08639145	     -8.00504402	     -5.10093557	      0.24843525	      0.89102469	      0.26435584	    -12.28056416	      9.03116646	     -1.28927221	     14.95373730	      0.26099195	      5.05368027	    -10.77761429	      0.00000000	     34.67363900	    -12.60926069	    -17.96611049	      9.22562582	      0.16101755	      3.33885400	     10.37935408	      0.00000000	     -0.91302382	      5.56309617	     -1.33281130	     44.27007085	    -15.97204447	     44.27007085	     75.20970376	     44.96984326	      0.00000000	      0.00000000	     44.27007085	    -15.97204447	     44.27007085	     75.20970376	     44.96984326	      0.00000000	      0.00000000
      0.72500000	     -6.78410972	     -7.43030780	     -5.41122598	      0.25641163	      0.89139422	      0.26411611	    -12.54015393	      8.19310435	     -1.09029988	     15.85045116	      0.27664256	      4.29948222	    -11.12840950	      0.00000000	     33.95671146	    -12.21837261	    -18.35930711	      9.49875374	      0.16578453	      2.65835616	      9.50723489	      0.00000000	     -1.13818706	      4.83152237	     -0.89449109	     44.27159417	    -15.96869266	     44.27159417	     75.20828992	     44.97040547	      0.00000000	      0.00000000	     44.27159417	    -15.96869266	     44.27159417	     75.20828992	     44.97040547	      0.00000000	      0.00000000
      0.73000000	     -6.53832962	     -7.08430937	     -5.41747904	      0.26440856	      0.89156866	      0.26326363	    -12.80227932	      7.64445595	     -1.14393485	     16.57469787	      0.28928305	      3.29897941	    -11.36631533	      0.00000000	     33.62650754	    -11.93012310	    -18.51867191	     10.26749598	      0.17920161	      2.11838645	      8.64247040	      0.00000000	     -1.27946365	      4.38601794	     -0.69449027	     44.27199392	    -15.96781398	     44.27199392	     75.20792016	     44.97055128	      0.00000000	      0.00000000	     44.27199392	    -15.96781398	     44.27199392	     75.20792016	     44.97055128	      0.00000000	      0.00000000
      0.73500000	     -6.25253575	     -6.57773225	     -5.56838903	      0.27234197	      0.89194847	      0.26280867	    -12.95620566	      6.91125143	     -1.14243522	     17.55632491	      0.30641567	      2.29143409	    -11.91259075	      0.00000000	     33.10863605	    -11.55660646	    -18.78686400	     10.84618556	      0.18930165	      1.45240958	      7.79470700	      0.00000000	     -1.47200723	      3.72604044	     -0.35798858	     44.27276307	    -15.96612413	     44.27276307	     75.20720994	     44.97083003	      0.00000000	      0.00000000	     44.27276307	    -15.96612413	     44.27276307	     75.20720994	     44.97083003	      0.00000000	      0.00000000
      0.74000000	     -5.97222899	     -6.12380785	     -5.62207588	      0.28034382	      0.89239434	      0.26217921	    -13.11609281	      6.25369739	     -1.16412951	     18.48323622	      0.32259333	      1.11312078	    -12.28627506	      0.00000000	     32.66215152	    -11.19198221	    -18.99179171	     11.51914636	      0.20104703	      0.79947928	      6.97671261	      0.00000000	     -1.64324922	      3.14092555	     -0.04754853	     44.27337887	    -15.96477207	     44.27337887	     75.20664256	     44.97105148	      0.00000000	      0.00000000	     44.27337887	    -15.96477207	     44.27337887	     75.20664256	     44.97105148	      0.00000000	      0.00000000
      0.74500000	     -5.64591109	     -5.50328894	     -5.82841583	      0.28831445	      0.89306502	      0.26192694	    -13.20636198	      5.38534020	     -1.15507773	     19.57873189	      0.34171333	     -0.09232328	    -12.81160443	      0.00000000	     32.00727728	    -10.71567647	    -19.26486572	     11.94931603	      0.20855491	      0.01211280	      6.16620838	      0.00000000	     -1.83853248	      2.35881978	      0.54430264	     44.27492520	    -15.96137988	     44.27492520	     75.20522213	     44.97160149	      0.00000000	      0.00000000	     44.27492520	    -15.96137988	     44.27492520	     75.20522213	     44.97160149	      0.00000000	      0.00000000
      0.75000000	     -5.34085019	     -5.13828872	     -5.71399879	      0.29627526	      0.89360674	      0.26094707	    -13.31354172	      4.83791840	     -1.37163185	     20.58828070	      0.35933329	     -1.52275304	    -13.18215184	      0.00000000	     31.67096004	    -10.36761999	    -19.35541550	     12.82239767	      0.22379306	     -0.51952623	      5.37453705	      0.00000000	     -2.05241152	      1.94079401	      0.75099036	     44.27533794	    -15.96047536	     44.27533794	     75.20484427	     44.97174659	      0.00000000	      0.00000000	     44.27533794	    -15.96047536	     44.27533794	     75.20484427	     44.97174659	      0.00000000	      0.00000000
      0.75500000	     -5.11544375	     -4.65158108	     -5.68240255	      0.30419352	      0.89412299	      0.26028222	    -13.19275136	      4.16513077	     -1.62942953	     21.82962531	      0.38099884	     -2.99005486	    -13.88586989	      0.00000000	     31.33422408	     -9.94226711	    -19.42422400	     13.56603150	      0.23677192	     -1.08798796	      4.70323530	      0.00000000	     -2.16029044	      1.33861757	      1.04811181	     44.27601204	    -15.95899875	     44.27601204	     75.20422813	     44.97198216	      0.00000000	      0.00000000	     44.27601204	    -15.95899875	     44.27601204	     75.20422813	     44.97198216	      0.00000000	      0.00000000
      0.76000000	     -4.89261132	     -4.16978670	     -5.63127654	      0.31214768	      0.89467458	      0.25965394	    -13.00608552	      3.49138090	     -1.97940068	     23.16376697	      0.40428400	     -4.57144058	    -14.56980680	      0.00000000	     31.00144061	     -9.51448783	    -19.48159974	     14.31224730	      0.24979584	     -1.61402346	      4.02012204	      0.00000000	     -2.22876948	      0.72723041	      1.36574623	     44.27682120	    -15.95722747	     44.27682120	     75.20349024	     44.97226261	      0.00000000	      0.00000000	     44.27682120	    -15.95722747	     44.27682120	     75.20349024	     44.97226261	      0.00000000	      0.00000000
      0.76500000	     -4.71806729	     -3.68284983	     -5.52860015	      0.32010290	      0.89520361	      0.25879960	    -12.72952482	      2.81105445	     -2.32151016	     24.54625705	      0.42841300	     -6.16598651	    -15.10365308	      0.00000000	     30.71376087	     -9.02761051	    -19.45251520	     15.02371985	      0.26221338	     -2.03169188	      3.38448914	      0.00000000	     -2.26317938	      0.18912208	      1.67463452	     44.27793776	    -15.95478538	     44.27793776	     75.20247504	     44.97264551	      0.00000000	      0.00000000	     44.27793776	    -15.95478538	     44.27793776	     75.20247504	     44.97264551	      0.00000000	      0.00000000
      0.77000000	     -4.41251678	     -3.36867773	     -5.36814252	      0.32796146	      0.89597656	      0.25789634	    -12.60223362	      2.31019827	     -2.69138825	     25.87195141	      0.45155074	     -7.86883510	    -15.49139797	      0.00000000	     30.34264752	     -8.69498950	    -19.30366002	     15.85642474	      0.27674682	     -2.25724648	      2.79773155	      0.00000000	     -2.48263780	     -0.23321825	      1.83570897	     44.27831006	    -15.95397170	     44.27831006	     75.20213735	     44.97277213	      0.00000000	      0.00000000	     44.27831006	    -15.95397170	     44.27831006	     75.20213735	     44.97277213	      0.00000000	      0.00000000
      0.77500000	     -4.39354082	     -2.78622139	     -5.19217165	      0.33596663	      0.89622120	      0.25707530	    -11.94804076	      1.50104780	     -3.42492622	     27.61709713	      0.48200927	     -9.56338544	    -16.29244031	      0.00000000	     30.21074430	     -8.07288274	    -19.20449823	     16.52037767	      0.28833498	     -2.57766573	      2.18226245	      0.00000000	     -2.28649960	     -0.88367407	      2.08597156	     44.27961669	    -15.95111801	     44.27961669	     75.20095519	     44.97321237	      0.00000000	      0.00000000	     44.27961669	    -15.95111801	     44.27961669	     75.20095519	     44.97321237	      0.00000000	      0.00000000
      0.78000000	     -4.26241452	     -2.31011091	     -4.94909944	      0.34389980	      0.89666935	      0.25603510	    -11.43913750	      0.79001656	     -4.12072676	     29.29164911	      0.51123572	    -11.29831492	    -16.91281453	      0.00000000	     29.97822920	     -7.50376157	    -19.02415686	     17.22524561	      0.30063725	     -2.71502378	      1.62670075	      0.00000000	     -2.26796870	     -1.40714563	      2.23346920	     44.28060466	    -15.94896252	     44.28060466	     75.20006452	     44.97354102	      0.00000000	      0.00000000	     44.28060466	    -15.94896252	     44.28060466	     75.20006452	     44.97354102	      0.00000000	      0.00000000
      0.78500000	     -4.22461067	     -1.74661426	     -4.65003076	      0.35183811	      0.89691323	      0.25482986	    -10.69808431	     -0.10295620	     -5.11631353	     31.23030114	      0.54507158	    -12.74929660	    -17.16295244	      0.00000000	     29.79133768	     -6.76010353	    -18.68609708	     17.78244565	      0.31036223	     -2.83680603	      0.88462915	      0.00000000	     -2.12223471	     -2.03749102	      2.24587484	     44.28395618	    -15.94166540	     44.28395618	     75.19706431	     44.97462816	      0.00000000	      0.00000000	     44.28395618	    -15.94166540	     44.28395618	     75.19706431	     44.97462816	      0.00000000	      0.00000000
      0.79000000	     -4.03465080	     -1.32998522	     -4.41002391	      0.35967095	      0.89751165	      0.25378647	    -10.18298224	     -0.78222269	     -5.77260762	     32.96726023	      0.57538724	    -14.61560334	    -17.94026794	      0.00000000	     29.45390512	     -6.22693174	    -18.52364455	     18.43918363	      0.32182447	     -2.73953208	      0.41340063	      0.00000000	     -2.19279505	     -2.51990429	      2.32910390	     44.28466252	    -15.94013024	     44.28466252	     75.19643579	     44.97485247	      0.00000000	      0.00000000	     44.28466252	    -15.94013024	     44.28466252	     75.19643579	     44.97485247	      0.00000000	      0.00000000
      0.79500000	     -4.01837135	     -0.76272724	     -4.15748367	      0.36756436	      0.89779128	      0.25271750	     -9.38198829	     -1.66858313	     -6.56024599	     34.90470003	      0.60920194	    -16.38098741	    -18.72661486	      0.00000000	     29.24144851	     -5.50948016	    -18.37853195	     18.96197807	      0.33094895	     -2.63231160	     -0.08915043	      0.00000000	     -2.02494281	     -3.12783923	      2.39794884	     44.28555781	    -15.93818576	     44.28555781	     75.19564109	     44.97513427	      0.00000000	      0.00000000	     44.28555781	    -15.93818576	     44.28555781	     75.19564109	     44.97513427	      0.00000000	      0.00000000
